<?xml version="1.0" encoding="UTF-8" standalone="no"?><!DOCTYPE svg PUBLIC "-//W3C//DTD SVG 1.1//EN" "http://www.w3.org/Graphics/SVG/1.1/DTD/svg11.dtd"><svg width="100%" height="100%" viewBox="0 0 1500 1500" version="1.1" xmlns="http://www.w3.org/2000/svg" xmlns:xlink="http://www.w3.org/1999/xlink" xml:space="preserve" xmlns:serif="http://www.serif.com/" style="fill-rule:evenodd;clip-rule:evenodd;stroke-linecap:round;stroke-linejoin:round;stroke-miterlimit:1.5;"><path d="M1365.79,525.495l0,449.01c0,123.908 -100.597,224.506 -224.505,224.506l-782.562,-0c-123.908,-0 -224.505,-100.598 -224.505,-224.506l-0,-449.01c-0,-123.908 100.597,-224.506 224.505,-224.506l782.562,0c123.908,0 224.505,100.598 224.505,224.506Zm-41.667,-0c0,-100.912 -81.927,-182.839 -182.838,-182.839l-782.562,-0c-100.911,-0 -182.838,81.927 -182.838,182.839l-0,449.01c-0,100.912 81.927,182.839 182.838,182.839l782.562,0c100.911,0 182.838,-81.927 182.838,-182.839l0,-449.01Z" style="fill:#023e62;"/><path id="O" d="M1194.32,924.895c-0,-19.188 -15.579,-34.766 -34.767,-34.766l-317.861,0c-19.187,0 -34.766,15.578 -34.766,34.766l0,69.533c0,19.187 15.579,34.766 34.766,34.766l317.861,-0c19.188,-0 34.767,-15.579 34.767,-34.766l-0,-69.533Z" style="fill:none;stroke:#023e62;stroke-width:41.67px;"/><path id="C" d="M346.61,890.176c16.27,-0.097 16.757,-0.016 31.635,-0c76.493,0.078 263.655,-0 313.216,-0m-279.808,-0l-65.043,-0m344.851,-0l-344.851,-0c-22.218,-0 -40.325,15.056 -40.917,33.793c-0.01,0.314 -0.015,0.63 -0.015,0.946l0,69.478c0,19.173 18.341,34.74 40.932,34.74l344.851,-0c22.591,-0 -307.563,0.137 -344.851,-0" style="fill:none;stroke:#023e62;stroke-width:41.67px;"/><g id="S" transform="matrix(1,0,0,0.841713,0,93.5423)"><g transform="matrix(696.896,0,0,696.896,1229.54,894.999)"></g><text x="909.338px" y="894.999px" style="font-family:'Calibri', sans-serif;font-size:696.896px;fill:#023e62;">S</text></g><g id="V" transform="matrix(1,0.000272309,-0.000250734,0.920771,-0.0922732,-29.2351)"><g transform="matrix(651.375,0,0,651.375,944.931,956.356)"></g><text x="575.352px" y="956.356px" style="font-family:'Calibri', sans-serif;font-size:651.375px;fill:#023e62;">V</text></g><path id="A" d="M393.232,752.241l-36.746,90.849c-0.693,1.753 -1.617,3.262 -2.773,4.528c-1.155,1.266 -2.831,2.337 -5.026,3.214c-2.196,0.876 -5.316,1.509 -9.36,1.898c-4.044,0.39 -9.302,0.585 -15.773,0.585c-6.702,-0 -12.19,-0.244 -16.466,-0.731c-4.275,-0.487 -7.279,-1.412 -9.013,-2.775c-1.733,-1.363 -2.542,-3.359 -2.426,-5.988c0.115,-2.629 1.097,-6.086 2.946,-10.371l150.448,-351.129c0.924,-2.143 2.138,-3.895 3.64,-5.258c1.502,-1.364 3.697,-2.435 6.586,-3.214c2.889,-0.779 6.587,-1.314 11.093,-1.606c4.507,-0.293 10.226,-0.439 17.16,-0.439c7.395,0 13.519,0.146 18.372,0.439c4.853,0.292 8.782,0.827 11.786,1.606c3.005,0.779 5.316,1.899 6.933,3.36c1.618,1.46 2.889,3.262 3.814,5.404l150.447,351.13c1.849,4.284 2.831,7.741 2.947,10.37c0.115,2.629 -0.751,4.625 -2.6,5.988c-1.849,1.364 -4.911,2.24 -9.186,2.629c-4.276,0.39 -9.995,0.585 -17.16,0.585c-7.164,-0 -12.884,-0.146 -17.159,-0.439c-4.275,-0.292 -7.511,-0.779 -9.706,-1.46c-2.196,-0.682 -3.813,-1.607 -4.853,-2.775c-1.04,-1.169 -2.023,-2.629 -2.947,-4.382l-38.479,-92.018l-15.599,-40.021m-170.9,40.021l170.9,-40.021l-78.344,-188.418l-0.346,-0l-92.21,228.439Z" style="fill:#023e62;fill-rule:nonzero;"/><g><path d="M441.634,706.082c116.414,-21.546 223.783,-69.612 340.479,-113.848c-83.017,49.359 -172.922,93.208 -270.397,131.014l19.907,60.367l-34.149,19.52l-55.84,-97.053Z" style="fill:#65ac4c;"/><path d="M441.634,706.082c116.414,-21.546 223.783,-69.612 340.479,-113.848c-83.017,49.359 -172.922,93.208 -270.397,131.014l19.907,60.367l-34.149,19.52l-55.84,-97.053Z" style="fill:#65ac4c;stroke:#0078c8;stroke-width:2.08px;stroke-linecap:butt;stroke-linejoin:miter;stroke-miterlimit:2;"/></g></svg>