<?xml version="1.0" encoding="UTF-8" standalone="no"?>
<!DOCTYPE svg PUBLIC "-//W3C//DTD SVG 1.1//EN" "http://www.w3.org/Graphics/SVG/1.1/DTD/svg11.dtd">
<svg width="100%" height="100%" viewBox="0 0 1646 1200" version="1.1" xmlns="http://www.w3.org/2000/svg" xmlns:xlink="http://www.w3.org/1999/xlink" xml:space="preserve" xmlns:serif="http://www.serif.com/" style="fill-rule:evenodd;clip-rule:evenodd;stroke-linecap:round;stroke-linejoin:round;stroke-miterlimit:1.5;">
    <g id="O" transform="matrix(1.00403,0,0,0.985974,729.624,143.339)">
        <path d="M881.323,779.197C881.323,744.524 853.679,716.374 819.629,716.374L255.574,716.374C221.524,716.374 193.88,744.524 193.88,779.197L193.88,904.843C193.88,939.516 221.524,967.667 255.574,967.667L819.629,967.667C853.679,967.667 881.323,939.516 881.323,904.843L881.323,779.197Z" style="fill:none;stroke:rgb(50,50,50);stroke-width:41.87px;"/>
    </g>
    <g id="C" transform="matrix(1.10594,0,0,0.985211,-183.2,143.969)">
        <path d="M259.821,716.374C286.033,716.199 286.816,716.346 310.785,716.374C434.017,716.515 735.539,716.374 815.382,716.374M364.607,716.374L259.821,716.374M815.382,716.374L259.821,716.374C224.028,716.374 194.857,743.603 193.904,777.486C193.888,778.055 193.88,778.625 193.88,779.197L193.88,904.843C193.88,939.516 223.427,967.667 259.821,967.667L815.382,967.667C851.775,967.667 319.892,967.915 259.821,967.667" style="fill:none;stroke:rgb(50,50,50);stroke-width:39.78px;"/>
    </g>
    <g id="S" transform="matrix(0.595989,0,0,0.501652,89.6573,316.656)">
        <g transform="matrix(2083.33,0,0,2083.33,2663.79,908.884)">
        </g>
        <text x="1706.56px" y="908.884px" style="font-family:'Calibri', sans-serif;font-size:2083.33px;fill:rgb(50,50,50);">S</text>
    </g>
    <g id="V" transform="matrix(1.93423,0.000526709,-0.000484978,1.78099,-24.3404,-1392.01)">
        <g transform="matrix(600,0,0,600,617.558,1219.95)">
        </g>
        <text x="277.128px" y="1219.95px" style="font-family:'Calibri', sans-serif;font-size:600px;fill:rgb(50,50,50);">V</text>
    </g>
    <g id="A" transform="matrix(1.05408,0,0,0.888262,-115.141,324.556)">
        <path d="M286.84,314.588L224.73,496.814C223.558,500.33 221.996,503.357 220.043,505.896C218.09,508.435 215.258,510.584 211.547,512.341C207.836,514.099 202.562,515.369 195.726,516.15C188.89,516.931 180.004,517.322 169.066,517.322C157.738,517.322 148.461,516.834 141.234,515.857C134.008,514.881 128.93,513.025 126,510.291C123.07,507.556 121.703,503.552 121.898,498.279C122.094,493.006 123.754,486.072 126.879,477.478L381.176,-226.819C382.738,-231.116 384.789,-234.631 387.328,-237.366C389.867,-240.1 393.578,-242.248 398.461,-243.811C403.344,-245.373 409.594,-246.448 417.211,-247.034C424.828,-247.619 434.496,-247.912 446.215,-247.912C458.715,-247.912 469.066,-247.619 477.269,-247.034C485.473,-246.448 492.113,-245.373 497.191,-243.811C502.269,-242.248 506.176,-240.002 508.91,-237.073C511.644,-234.143 513.793,-230.53 515.355,-226.233L769.652,478.064C772.777,486.658 774.437,493.591 774.633,498.865C774.828,504.138 773.363,508.142 770.238,510.877C767.113,513.611 761.937,515.369 754.711,516.15C747.484,516.931 737.816,517.322 725.707,517.322C713.598,517.322 703.93,517.029 696.703,516.443C689.476,515.857 684.008,514.881 680.297,513.513C676.586,512.146 673.851,510.291 672.094,507.947C670.336,505.603 668.676,502.674 667.113,499.158L602.074,314.588L575.707,234.314M286.84,314.588L575.707,234.314L443.285,-143.616L442.699,-143.616L286.84,314.588Z" style="fill:rgb(50,50,50);fill-rule:nonzero;"/>
    </g>
    <g transform="matrix(3.974,0,0,3.974,-145.004,-172.52)">
        <g transform="matrix(0.721836,0,0,0.721836,-86.7441,37.9604)">
            <path d="M266.046,189.438C338.351,176.056 405.038,146.202 477.518,118.727C425.956,149.384 370.116,176.619 309.574,200.1L321.938,237.594L300.728,249.718L266.046,189.438Z" style="fill:rgb(0,175,255);"/>
        </g>
        <g transform="matrix(0.721836,0,0,0.721836,-86.7441,37.9604)">
            <path d="M266.046,189.438C338.351,176.056 405.038,146.202 477.518,118.727C425.956,149.384 370.116,176.619 309.574,200.1L321.938,237.594L300.728,249.718L266.046,189.438Z" style="fill:none;stroke:rgb(0,175,255);stroke-width:0.73px;stroke-linecap:butt;stroke-linejoin:miter;stroke-miterlimit:2;"/>
        </g>
    </g>
</svg>
